<?xml version="1.0" encoding="UTF-8" standalone="no"?>
<!-- Created with Inkscape (http://www.inkscape.org/) -->

<svg
   width="750"
   height="750"
   viewBox="0 0 198.4375 198.4375"
   version="1.1"
   id="svg6824"
   xmlns="http://www.w3.org/2000/svg"
   xmlns:svg="http://www.w3.org/2000/svg">
  <defs
     id="defs6821">
    <rect
       x="943.93127"
       y="1862.8284"
       width="1101.4987"
       height="457.97601"
       id="rect427" />
  </defs>
  <g
     id="layer1">
    <g
       id="g672"
       transform="translate(-317.28845,-365.99136)">
      <path
         id="rect293-6"
         style="fill:#014f41;stroke-width:2.64583"
         d="m 338.38707,365.99136 h 156.24027 c 11.68863,0 21.09861,9.40999 21.09861,21.09862 v 156.24027 c 0,11.68863 -9.40998,21.09861 -21.09861,21.09861 H 338.38707 c -11.68864,0 -21.09862,-9.40998 -21.09862,-21.09861 V 387.08998 c 0,-11.68863 9.40998,-21.09862 21.09862,-21.09862 z" />
      <g
         id="g666"
         transform="translate(6.5e-5,9.4613193e-5)">
        <path
           id="path295-1"
           style="fill:#ffffff;stroke-width:0.437612"
           d="m 411.63589,386.90839 -24.67567,17.92787 a 8.2852043,8.2852043 0 0 0 -3.0091,9.26523 l 6.28025,19.3113 42.69312,-31.03642 a 4.3759892,4.3759892 0 0 0 -8.7e-4,-7.07977 l -11.54513,-8.38817 a 8.2874517,8.2874517 0 0 0 -9.74253,-4e-5 z m 23.34056,16.95842 -16.42485,11.94023 42.71098,31.01367 a 4.3759233,4.3759233 0 0 0 6.73289,-2.18867 l 4.40982,-13.57202 a 8.2875516,8.2875516 0 0 0 -3.01061,-9.26575 L 444.71803,403.8655 a 8.2850939,8.2850939 0 0 0 -9.74158,8.8e-4 z m -59.81125,9.53922 -11.54552,8.38828 A 8.2874333,8.2874333 0 0 0 360.6091,431.06 l 9.42566,29.00854 a 8.2852615,8.2852615 0 0 0 7.88193,5.72492 l 20.30591,-0.005 -16.32395,-50.19518 a 4.3758954,4.3758954 0 0 0 -6.73345,-2.18687 z m 40.1365,4.76295 -23.07393,16.77432 23.07393,7.49707 z m 2.41093,0.01 v 24.26196 l 23.08288,-7.49989 z m -26.23857,19.05476 8.82218,27.12795 14.26022,-19.62806 z m 50.05821,0.002 -23.07441,7.49707 14.26681,19.63654 z m 2.5155,0.066 -16.29815,50.20355 a 4.375838,4.375838 0 0 0 4.16201,5.727 h 14.27101 a 8.2875118,8.2875118 0 0 0 7.88188,-5.72653 l 9.4253,-29.00805 a 8.2854058,8.2854058 0 0 0 -3.01148,-9.26453 z m -27.54061,8.84903 -14.26587,19.63559 28.52656,-0.007 z m 14.97672,22.03994 -52.78332,0.0149 a 4.375974,4.375974 0 0 0 -4.16058,5.72823 l 4.40982,13.57203 a 8.2875061,8.2875061 0 0 0 7.88189,5.72653 h 30.50218 a 8.2850798,8.2850798 0 0 0 7.88029,-5.72705 z" />
        <path
           id="path646"
           style="font-size:96px;font-family:aoyagireisyo2;-inkscape-font-specification:aoyagireisyo2;white-space:pre;fill:#ffffff;stroke-width:0.935419;stroke-linecap:square;stroke-linejoin:round"
           d="m 416.77043,515.31273 -1.51361,0.16433 c 0,0.29618 -0.0329,0.55942 -0.0987,0.82269 -0.0987,0.26326 -0.32911,0.49382 -0.62528,0.65836 -0.29618,0.19745 -0.62557,0.39476 -0.88884,0.59221 -0.29617,0.23036 -0.65791,0.46107 -1.08572,0.69143 l 0.95446,2.20452 v 0.1974 l -1.48104,0.19741 0.32918,0.92139 v 0.88883 c 0,0.32908 -0.16479,0.59217 -0.46096,0.78962 -0.32908,0.23036 -0.59216,0.39476 -0.78961,0.59221 -0.16454,0.23035 -0.46051,0.46107 -0.88832,0.69143 l 0.32866,2.17196 0.85576,0.16433 1.48105,-0.36173 1.48053,-1.97456 3.61993,1.18442 v 0.39481 l 0.88884,0.16485 v 0.42788 h 0.52658 v 0.36174 l 4.17907,1.61282 0.65836,-0.23048 2.00711,0.39481 1.25057,-0.16433 v -0.23048 h 1.74408 c 0.42781,-0.13164 0.72395,-0.29606 0.92139,-0.49351 0.13164,-0.19745 0.23048,-0.39526 0.23048,-0.69143 v -0.78962 c 0,-0.21195 0.0852,-0.45195 0.27802,-0.69401 l -1.10071,0.16743 c -1.1847,0 -2.3696,-0.0988 -3.5543,-0.32918 -1.2176,-0.19745 -2.40218,-0.36188 -3.58686,-0.49351 -1.1847,-0.13164 -2.27044,-0.3618 -3.25769,-0.78961 -1.02015,-0.3949 -1.97484,-0.78988 -2.96209,-1.15187 l -2.40192,-2.20503 v -0.52659 l 1.18442,-0.78961 1.51412,0.78961 h 1.18443 l 0.2961,-0.78961 1.74408,-0.23048 h 2.10633 l -1.18494,1.54668 -1.25005,0.42788 v 0.16433 l 0.62529,0.1974 0.88831,1.97456 h 0.62529 v -0.19741 l 1.48053,-0.59221 c 0.23036,0 0.36206,-0.0658 0.42788,-0.1974 0.0987,-0.13164 0.19738,-0.23029 0.2961,-0.29611 0.0987,-0.0658 0.26367,-0.0987 0.49403,-0.0987 h 0.52658 l 2.10582,-1.38234 -0.62529,-1.71101 c -0.36199,-0.26327 -0.72391,-0.49364 -1.02009,-0.72399 -0.32908,-0.19745 -0.65826,-0.2961 -1.05316,-0.2961 h -1.3162 c -0.49362,0 -0.9213,-0.0658 -1.3162,-0.19741 l -2.33681,0.19741 h -1.5136 l 0.55965,-0.98754 -0.26355,-1.54668 h -0.59221 v -0.42788 z m 13.90199,10.6593 0.41289,-0.063 h -0.36173 c -0.0184,0.021 -0.0344,0.042 -0.0512,0.063 z m -81.46273,-9.57358 c -0.62526,0.16454 -1.21718,0.23048 -1.87534,0.23048 -0.69106,0 -1.28366,0.0327 -1.90892,0.0656 -0.59234,0.0658 -1.18464,0.16467 -1.74408,0.23048 -0.59235,0.13164 -1.15191,0.26334 -1.77715,0.42788 v 0.36225 l -0.85577,0.55914 0.16485,1.11879 2.69854,-0.55914 h 1.51361 v 0.75655 h 0.42788 v 0.52658 c -0.69107,0.26327 -1.51376,0.49382 -2.36937,0.65836 -0.92143,0.19745 -1.77697,0.36203 -2.56676,0.52658 -0.82271,0.19744 -1.61281,0.39476 -2.43551,0.59221 -0.7898,0.19745 -1.64534,0.36223 -2.56677,0.46096 v 0.55914 l -1.05317,0.1974 c 0.13163,0.36199 0.3293,0.72425 0.55966,1.08624 0.23036,0.36199 0.32898,0.78952 0.3948,1.18442 0.0658,0.46072 0.16464,0.88841 0.32918,1.2175 0.16454,0.36199 0.46051,0.6912 0.88832,0.95446 l 1.34927,-0.1974 -0.46043,-2.76417 -0.88884,-0.59222 v -0.49402 l 7.76645,-1.51361 h 1.05317 v 0.78962 0.85576 c 0,0.23036 -0.0329,0.49363 -0.0987,0.72399 -0.0658,0.26326 -0.16464,0.5267 -0.32918,0.75706 v 0.65784 0.59273 c 0,0.16454 0.0659,0.36204 0.23047,0.52658 0.13163,0.16454 0.19741,0.3288 0.19741,0.46044 h 0.92139 v 0.1974 h 0.1974 l 0.69092,-5.56142 0.88883,-0.1974 h 2.76417 c 0.92143,0 1.84312,0.0329 2.63292,0.0987 0.8227,0.0658 1.67807,0.1316 2.53369,0.19741 0.88852,0.0658 1.71118,0.26345 2.46807,0.65835 l -0.26303,2.36937 -1.08624,0.55914 h 1.08624 v 0.39532 c 0.16454,0.13163 0.29591,0.23013 0.36173,0.26304 0.0658,0.0658 0.0987,0.13139 0.0987,0.26303 0,0.13163 0.0659,0.2308 0.23048,0.29662 0.16454,0.0658 0.29624,0.0987 0.42788,0.0987 l 0.26303,0.75655 0.39481,0.13177 0.46096,-0.13177 0.85576,-2.435 -0.19741,-3.12642 c -1.02014,-0.49363 -2.07352,-0.8886 -3.15949,-1.15187 -1.11888,-0.19745 -2.23749,-0.39495 -3.45509,-0.52658 -1.1847,-0.13163 -2.4025,-0.19741 -3.65301,-0.19741 h -3.653 v -0.49351 -0.42788 c 0,-0.13163 0.033,-0.26318 0.13177,-0.3948 0.0658,-0.0987 0.16448,-0.23011 0.29611,-0.36174 l 2.00763,0.1974 h 0.75706 0.69091 c 0.23036,0 0.3946,-0.0658 0.55914,-0.1974 0.13163,-0.13163 0.26334,-0.26353 0.42788,-0.36225 l -0.23048,-0.72399 z m 132.456,0.42788 -0.16485,2.10634 -2.7311,1.18442 h -0.39532 v -1.18442 l -1.54668,-1.3162 h -0.62528 l -0.59221,0.72398 h -0.36174 l -0.82269,0.82269 c -0.0987,0.0987 -0.19774,0.29572 -0.26355,0.52607 -0.0658,0.29618 -0.13158,0.49401 -0.1974,0.59273 -0.0658,0.13163 -0.19736,0.29606 -0.39481,0.49351 -0.19745,0.19745 -0.36188,0.36222 -0.49351,0.46095 l -0.39481,0.59221 c -0.3949,0 -0.75716,0.13154 -1.08624,0.39481 -0.32908,0.26326 -0.65794,0.46094 -0.98702,0.55966 -0.32908,0.13164 -0.62537,0.26318 -0.95446,0.3948 -0.36199,0.13164 -0.72425,0.26335 -1.08624,0.42789 l -0.16433,0.32866 0.36174,1.74408 h 1.11931 c 0.29618,0 0.59198,-0.0986 0.85524,-0.29611 0.23036,-0.19745 0.4938,-0.36169 0.75706,-0.55914 0.26327,-0.16454 0.52651,-0.39525 0.82269,-0.69143 l 0.36225,-0.52606 0.98702,-0.42789 1.18443,0.55914 c 0.13163,0.55944 0.13163,1.0202 0,1.34928 -0.16454,0.3949 -0.22996,0.82292 -0.22996,1.28364 0,0.42781 -0.0661,0.85567 -0.16485,1.25057 -0.13163,0.36199 -0.29603,0.75697 -0.59221,1.15187 l 0.75706,2.69802 1.18442,0.55966 v 0.39481 c -0.7898,0.13163 -1.57941,0.26317 -2.33629,0.3948 -0.75689,0.13163 -1.54649,0.3293 -2.33629,0.55966 -0.8227,0.26326 -1.61298,0.42769 -2.46859,0.49351 -0.85562,0.0658 -1.57943,0.29601 -2.23759,0.69091 v 0.36226 h -0.42788 l -0.72398,1.74407 0.16484,1.34928 c 0.92143,-0.26326 1.77681,-0.62534 2.5337,-1.15187 0.75688,-0.52653 1.61246,-0.88825 2.46807,-1.18443 0.88852,-0.26325 1.74439,-0.52687 2.63291,-0.79013 0.92143,-0.19745 1.80967,-0.46071 2.7311,-0.72398 h 1.02009 v 0.75706 c -0.55944,0.23035 -1.08561,0.55956 -1.57923,0.95446 -0.55944,0.3949 -1.08613,0.75664 -1.57975,1.08572 -0.52654,0.32908 -1.02014,0.59233 -1.54667,0.82269 -0.55944,0.26326 -1.119,0.39481 -1.77716,0.39481 l -0.3948,0.79013 h -0.59222 l 0.19741,-0.55966 -0.79013,1.3162 h -0.36174 l 0.16433,1.34927 h 0.88884 0.88831 c 0.26326,0 0.52688,-0.0986 0.79014,-0.2961 0.26327,-0.16454 0.49328,-0.26303 0.75654,-0.26303 v -0.19741 h 0.1974 v -0.1974 l 3.91604,-1.942 v -0.39481 l 0.82269,-0.16433 v -0.39481 l 2.30374,-1.71152 h 0.55965 l -0.32918,6.35155 0.98702,2.10581 h 0.72399 v -1.02009 h 0.42788 v -6.088 l 1.15187,0.36225 v 0.39481 l 1.97456,1.74408 2.33629,1.3162 0.62528,1.18494 0.75706,0.36173 h 1.87586 c 0.55944,0 1.15137,-0.0657 1.77663,-0.1974 0.59234,-0.0987 1.18516,-0.19738 1.7446,-0.29611 0.59235,-0.0658 1.05307,-0.26346 1.44797,-0.65836 v -0.55913 l 0.59221,-0.39481 h -0.36225 l 0.36225,-0.75706 v -0.95447 l -1.74407,0.36226 h -0.42789 v -0.16485 c -0.62526,0 -1.25078,-0.0329 -1.81022,-0.0987 -0.59235,-0.0658 -1.18429,-0.16447 -1.77664,-0.29611 -0.62525,-0.13163 -1.15192,-0.29606 -1.67845,-0.49351 -0.49363,-0.19745 -1.02014,-0.32897 -1.54667,-0.49351 v -0.36225 l -4.14652,-2.5337 v -0.75706 l 0.82269,-0.1974 7.6016,0.39481 3.91604,0.55965 0.19792,0.39481 h 2.20452 l 0.13177,-0.75706 0.62529,-0.39481 v -0.1974 c -0.7898,-0.23036 -1.64534,-0.42803 -2.56677,-0.55966 -0.92143,-0.13163 -1.81021,-0.26317 -2.63291,-0.3948 -0.88853,-0.13163 -1.71099,-0.2303 -2.5337,-0.29611 -0.88852,-0.0658 -1.74404,-0.16448 -2.66547,-0.29611 l -3.71864,0.19741 h -2.53421 l -0.42788,-1.34927 v -0.36174 l 1.57975,-0.19792 3.5543,0.19792 h 0.59222 v -1.54667 c -0.29617,0 -0.52687,-0.0663 -0.79014,-0.19793 -0.26326,-0.13163 -0.55923,-0.1974 -0.88831,-0.1974 h -0.98702 -0.85577 l 0.19741,-1.15187 3.32383,-0.1974 -0.23048,-1.5136 -3.09335,-0.23048 v -1.15187 h 3.68556 v -1.34875 l -3.12591,-0.72399 v -0.39532 l 2.92851,0.39532 0.79013,-0.23048 -0.59273,-1.54667 -3.32383,-0.39481 -0.1974,-1.54668 h -0.36174 l -0.95446,-1.51412 z m -20.83129,0.13178 -1.74408,0.46044 v 0.42788 h -0.46043 l -0.23048,0.39481 0.39481,4.08088 -0.0331,6.15363 c -0.75689,-0.0329 -1.38187,0.0329 -2.00712,0.19741 -0.59235,0.16454 -1.21771,0.29625 -1.77715,0.42788 -0.62525,0.0987 -1.21736,0.26367 -1.80971,0.49402 -0.62525,0.23036 -1.28381,0.23019 -2.0407,0.0656 l -0.85525,0.92139 -0.75706,1.67845 v 0.65785 c 0.49362,0.13164 0.92166,0.0662 1.28365,-0.22996 0.32908,-0.29618 0.72389,-0.52671 1.11879,-0.75706 0.36199,-0.16454 0.78986,-0.26355 1.25057,-0.26355 h 1.3162 v -0.42737 l 3.15898,-0.62528 1.3162,0.0326 0.52658,13.36094 v 1.08573 l 0.42788,-0.65784 h 0.46096 l 0.65784,-1.28365 0.0331,-1.21749 h -0.46095 l -0.16433,-4.01475 v -1.84278 -1.90892 c 0,-0.65816 1.7e-4,-1.31621 -0.0656,-2.04019 -0.0658,-0.69108 0.0984,-1.28355 0.55914,-1.67845 l 0.65835,0.1974 2.69855,0.0331 0.88831,-1.3162 v -0.39481 l -4.44262,-0.69143 -0.42788,-1.74408 0.69143,-2.76417 -0.23048,-1.05317 0.52659,-4.64003 z m -55.08811,0.29611 -1.44797,0.42788 -0.59221,0.95446 1.18442,2.00711 0.29611,-0.1974 0.32918,0.1974 0.85576,-0.42788 h 0.59221 v 0.23048 h 0.26303 l 1.21802,-0.42788 -0.59273,-2.33629 z m -26.88621,0.3948 -4.14652,1.25057 -1.05265,0.95447 c -0.16454,0.55944 -0.13162,1.02 0.0987,1.4149 0.23034,0.4278 0.4278,0.79006 0.72398,1.08624 0.26326,0.36199 0.39481,0.75678 0.39481,1.21749 0,0.42781 0.0654,0.85533 0.22996,1.28313 l -0.22996,2.96209 0.62528,2.00711 0.62529,0.19741 -0.1974,0.59273 c -0.69107,0.65816 -1.38222,1.28299 -1.97456,1.87533 -0.62526,0.62525 -1.28348,1.11922 -1.97456,1.51412 -0.65816,0.3949 -1.41507,0.75697 -2.17196,1.15187 -0.7898,0.42781 -1.6455,0.62529 -2.59984,0.62529 l -0.16433,1.02009 0.16433,0.98702 c 0.52653,0.13163 1.08596,0.0986 1.54668,-0.13178 0.49362,-0.19744 0.98745,-0.3288 1.38234,-0.46043 0.42781,-0.0987 0.8226,-0.29603 1.2175,-0.59221 0.4278,-0.29617 0.85531,-0.55943 1.28312,-0.82269 l 4.54133,-4.5744 h 0.62528 l 0.85576,2.04018 c 0,0.65817 -0.0329,1.28335 -0.0987,1.84279 -0.0987,0.62526 -0.26315,1.15208 -0.49351,1.71152 -0.29617,0.55944 -0.55959,1.05269 -0.85576,1.57923 -0.29618,0.49362 -0.55959,1.02031 -0.85576,1.57975 l 0.46095,1.57975 h 0.59222 c 0.42779,-0.62525 0.7568,-1.3164 1.11879,-1.97456 0.36199,-0.69107 0.65829,-1.31656 0.95446,-2.00763 0.26327,-0.65816 0.42786,-1.38216 0.52659,-2.17196 0.0658,-0.75689 0.26347,-1.48072 0.55965,-2.13889 l -0.46095,-2.99464 0.1974,-0.82269 -0.1974,-1.4149 v -0.36226 l 1.87585,-0.62528 h 0.42788 l -0.42788,2.99465 c -0.13163,0.92143 0.0659,1.74428 0.52659,2.40244 0.49362,0.69107 0.69109,1.41504 0.62528,2.27066 -0.0658,0.88852 -0.0658,1.67843 0,2.50114 0.0658,0.7898 0.1972,1.57956 0.36174,2.36936 l -0.46044,1.61231 v 0.82269 c 0,0.32908 0.0654,0.62521 0.22996,0.92139 0.16454,0.23036 0.29659,0.4609 0.39532,0.65835 0.0987,0.19745 0.32912,0.46073 0.62529,0.72399 l 1.25057,-0.82269 -0.62529,-7.3055 c 0.13163,-0.39489 0.16433,-0.82293 0.16433,-1.28364 0,-0.42781 0.0331,-0.92127 0.13178,-1.4149 0.0987,-0.46071 0.13126,-0.88839 0.13126,-1.3162 0,-0.36199 0.13189,-0.75697 0.36225,-1.15186 l 1.90841,1.57974 h 0.39532 v 0.46044 l 3.15898,3.12642 4.5744,2.6324 1.64538,-0.23047 0.85525,-0.78962 1.05316,-2.00711 -0.22996,-0.79014 0.22996,-0.98702 v -0.3948 l -2.53369,0.62528 -4.5744,-1.18494 c -0.3949,-0.29618 -0.88854,-0.59214 -1.44798,-0.88832 -0.52653,-0.23035 -1.05272,-0.52668 -1.48053,-0.85576 -0.3949,-0.32908 -0.85565,-0.69118 -1.34927,-1.05316 -0.46072,-0.3949 -0.8557,-0.88854 -1.15187,-1.44798 l -1.67845,-0.98702 v -0.36225 l 1.48105,0.36225 1.25057,-0.59273 c 0.29618,-0.52653 0.52618,-1.01979 0.75654,-1.57923 0.19745,-0.55944 0.32915,-1.05338 0.42788,-1.61282 0.0658,-0.52653 0.0987,-1.11847 0.0987,-1.77664 0,-0.65816 0.1644,-1.18484 0.59221,-1.57974 l -0.42788,-1.57975 h -0.39481 v -0.42788 l -1.87586,-0.55914 -4.80435,0.1974 h -0.92139 -0.95447 c -0.29617,0 -0.52653,-0.0657 -0.72398,-0.1974 -0.19745,-0.13163 -0.42782,-0.29641 -0.72399,-0.46096 z m 65.19137,0.88884 -0.85576,0.1974 c -0.46071,0.16454 -0.65784,0.39456 -0.65784,0.75655 0,0.32908 -0.0329,0.65829 -0.0987,0.95446 -0.0987,0.29618 -0.13177,0.52651 -0.13177,0.82269 0,0.29617 -0.099,0.59265 -0.26355,0.88883 l 0.88883,2.10582 -0.0331,2.33681 c -0.72398,0.29616 -1.448,0.49313 -2.07326,0.62476 -0.69107,0.16454 -1.31603,0.32914 -2.00711,0.52659 -0.65816,0.19745 -1.34946,0.39492 -2.00763,0.62528 -0.69107,0.23036 -1.41507,0.32902 -2.17196,0.29611 l -2.20503,2.36988 v 0.85524 l 7.99692,-2.96157 h 0.65836 v 0.85576 c -0.16454,0.29618 -0.29624,0.59197 -0.42788,0.85524 -0.16454,0.29617 -0.29641,0.59266 -0.46095,0.88884 -0.16454,0.29617 -0.36166,0.49362 -0.65784,0.72398 -0.29617,0.23036 -0.62521,0.3946 -0.92139,0.55914 l -0.65836,1.0201 c -0.29617,0 -0.52638,0.0663 -0.69092,0.19792 -0.13164,0.16454 -0.26334,0.26285 -0.42788,0.32866 -0.16454,0.0987 -0.32929,0.13177 -0.55965,0.13177 h -0.75655 l -1.15186,1.25057 v 1.05317 l 1.54667,0.46044 1.77664,-0.42788 0.23048,-0.65785 0.46095,0.0326 0.23048,-1.05265 3.55378,-3.19205 0.88884,0.46044 -0.29662,7.00939 v 0.72398 0.65836 c 0,0.23036 0.033,0.42748 0.13177,0.65784 0.0658,0.19745 0.16448,0.3624 0.29611,0.49403 l 0.69091,-0.42788 v -0.39481 h 0.88884 V 539.533 c 0,-0.49362 -3.5e-4,-1.01979 0.0326,-1.57923 0,-0.52653 -0.0329,-1.08629 -0.0987,-1.61282 -0.0987,-0.46072 -0.19703,-0.95402 -0.32866,-1.38183 l 0.22996,-0.62529 1.11931,0.26304 h 0.69091 l 0.42788,-1.51361 -0.1974,-1.08624 -0.65836,-0.16433 v -0.46095 l -1.11879,-0.46044 -0.23048,-0.62528 v -1.74408 l 2.89595,0.26303 2.73161,-0.1974 0.26304,-0.42788 v -1.08573 l -3.42253,-0.46095 v -0.39481 l 1.11879,-0.42788 1.38235,-2.33629 v -0.85576 c 0,-0.26326 -0.0329,-0.49363 -0.0987,-0.72399 -0.0329,-0.23035 -0.23041,-0.36171 -0.52658,-0.46043 -0.29617,-0.0658 -0.52637,-0.19772 -0.69091,-0.36226 h -1.1188 l -0.42788,0.65836 0.19741,0.62529 c 0.13163,0.29617 0.0985,0.52618 -0.13178,0.75654 -0.19745,0.23035 -0.29611,0.46072 -0.29611,0.72399 v 0.88883 c -0.0329,0.29617 -0.0331,0.55908 -0.0331,0.85525 l -1.11879,0.42788 -0.69092,-0.0326 0.26304,-1.05317 -0.19741,-5.95674 z m -61.01178,1.54667 h 3.12591 l 0.23047,0.59222 -0.23047,0.75706 v 0.65784 l -0.82269,-0.19741 -1.51361,0.19741 h -1.84278 l -0.1974,-0.82269 v -0.82269 z m -4.377,1.18443 h 1.44798 l -0.42788,1.05316 -1.64538,0.55966 -1.05317,-0.42788 z m 100.89669,0.39481 h 0.95446 v 0.55965 l -1.54667,0.39481 h -1.38235 v -0.39481 z m -24.12153,0.16484 -1.54667,0.19741 -0.65836,1.05316 v 1.28313 l 0.88832,0.65836 2.43551,0.0326 0.22996,-1.711 v -0.88832 z m -47.2891,0.13126 c -0.62525,0.29617 -1.1848,0.55976 -1.77715,0.88884 -0.59235,0.36199 -1.21751,0.59235 -1.94149,0.72398 -0.69107,0.13163 -1.38254,0.23011 -2.0407,0.36174 -0.69107,0.13163 -1.21758,0.39523 -1.64538,0.79013 0,0.29617 0.0661,0.49346 0.16485,0.69091 0.0987,0.19745 0.19739,0.42766 0.29611,0.69092 0.0987,0.26327 0.23028,0.46091 0.2961,0.65836 0.0987,0.19745 0.32893,0.36188 0.69092,0.49351 h 1.51412 v -0.36174 h 0.59221 l 0.26303,-0.59273 0.95447,0.39533 v -0.23048 h 0.55965 l 0.62529,-0.55966 v -0.49351 -0.59221 c 0,-0.19745 -0.0661,-0.36188 -0.16485,-0.49351 -0.0987,-0.13163 -0.26299,-0.26369 -0.46044,-0.39532 z m 30.80174,0.36225 -0.42788,0.85576 c 0,0.29618 0.0328,0.52651 0.1974,0.82269 0.16454,0.29617 0.26336,0.62503 0.32918,0.98702 0.0658,0.32909 0.16464,0.62541 0.32918,0.85577 0.16454,0.23036 0.36201,0.46071 0.62528,0.72398 l 0.88832,-0.1974 0.69143,-1.87586 c -0.16454,-0.16454 -0.23047,-0.36185 -0.23047,-0.59221 v -0.62528 c 0,-0.23036 -0.0986,-0.39512 -0.29611,-0.55966 -0.23036,-0.13163 -0.42803,-0.26318 -0.55966,-0.39481 z m 37.48246,0.46044 0.55966,0.19792 -0.16485,0.1974 -0.22996,0.19741 -0.16485,-0.19741 z m -125.21561,0.32918 c -0.46072,0 -0.78955,0.0657 -1.08572,0.1974 -0.29618,0.13163 -0.62574,0.32914 -0.92191,0.52659 v 0.55965 l 3.09335,0.19741 c 0,0.23035 -0.16409,0.39513 -0.42736,0.46095 -0.29617,0.0329 -0.59267,0.0656 -0.88884,0.0656 -0.26325,0 -0.52618,0.0329 -0.75654,0.0987 -0.23036,0.0658 -0.52652,0.16447 -0.82269,0.29611 l -0.42788,0.75706 0.42788,0.88831 0.46044,0.19741 1.3162,-0.72399 2.66547,0.16485 1.77715,-0.16485 c 0,-0.23035 -0.0659,-0.46039 -0.23048,-0.65784 -0.16453,-0.19745 -0.32862,-0.3295 -0.52606,-0.39532 -0.23036,-0.0329 -0.46107,-0.0985 -0.69143,-0.16434 -0.23035,-0.0658 -0.49328,-0.0987 -0.75654,-0.0987 v -0.72398 l 1.08572,-0.39481 v -0.52659 l -0.88832,-0.55965 h -1.18494 z m 32.28279,0.36225 h 2.20503 l -0.36225,1.38183 v 0.59273 l -2.92851,0.22996 h -0.85576 l 0.42788,-1.84278 z m -40.01617,0.0326 -3.78426,0.32918 -1.11931,1.48104 0.23047,0.19741 5.10098,-1.3162 z m 35.17873,0.9219 h 0.85577 v 0.78962 l -0.65836,0.46044 v 0.36225 l -0.82269,0.23048 -1.05317,-0.23048 v -0.95446 z m 101.45583,0.29611 h 0.8232 l -0.23047,0.55914 -2.17196,0.59273 h -2.33681 v -0.59273 l 0.62528,0.23048 z m -137.98383,0.78962 v 0.16433 l -1.97455,0.23047 -0.65836,0.72399 v 1.1188 l 4.41006,-0.75655 0.88832,-1.08624 -0.88832,0.16485 -1.38234,-0.16485 v -0.3948 z m 113.27009,0.16433 -3.12642,0.62528 -0.19741,0.62529 0.39481,1.71152 3.61993,-0.82269 0.42789,-1.31671 z m -70.48924,1.18494 0.16433,0.16433 -0.16433,0.1974 -0.19792,-0.1974 z m 95.43345,0.16433 h 0.95447 l -0.36174,0.79013 v 0.36174 l -3.15949,0.82269 h -1.77716 l 0.19741,-0.82269 c 0.26326,-0.26326 0.59264,-0.39463 0.98753,-0.46044 0.3949,-0.0658 0.75665,-0.13159 1.08573,-0.1974 0.32909,-0.0658 0.65845,-0.1316 0.98753,-0.19741 0.29617,-0.0658 0.65792,-0.16498 1.08572,-0.29662 z m -136.66762,1.05316 -0.19741,1.3162 c -0.29617,0.36199 -0.65844,0.75733 -0.98753,1.11932 -0.3949,0.36198 -0.78936,0.7568 -1.15135,1.11879 -0.32909,0.36199 -0.75713,0.69103 -1.18494,0.92139 -0.42781,0.26327 -0.88856,0.52618 -1.34928,0.75654 l 0.88884,2.20504 1.34875,-0.55914 0.85577,-0.72399 c 0.29616,-0.3949 0.62556,-0.79023 0.88883,-1.11931 0.29617,-0.36199 0.62519,-0.72357 1.02009,-1.05265 0.32908,-0.26327 0.6249,-0.62571 0.85525,-1.02061 0.23036,-0.36199 0.4938,-0.72373 0.75706,-1.08572 l 0.42788,-0.55966 h 0.49351 l -0.23048,-0.55914 -1.77663,-0.75706 z m 33.73076,0.55966 h 0.3948 v 0.36174 h -0.3948 z m 37.84471,0 -6.54895,0.78962 -2.00711,1.18494 1.44797,3.09335 -0.62528,2.99465 v 1.18442 l 1.84278,1.1188 v 0.62528 l -1.84278,1.11931 0.62528,0.98702 0.88832,0.39481 h 0.88832 l 3.2582,-2.17196 -1.15187,-1.28313 v -0.42788 l 2.33629,-0.1974 2.40244,0.1974 0.62528,-0.1974 2.00763,0.1974 -0.19792,0.75655 0.52658,2.36936 2.99465,0.95446 v 0.16485 h 0.85576 v 0.59221 h 0.65836 l 2.00711,1.38183 1.81023,-0.36173 v -0.42788 l 0.88832,-0.19741 1.19992,-2.21072 -0.27853,0.10439 c -0.8227,0 -1.48057,-0.0329 -2.10582,-0.0987 -0.59235,-0.0658 -1.1848,-0.19701 -1.77715,-0.42737 -0.62525,-0.19745 -1.1848,-0.39492 -1.77715,-0.62528 -0.59235,-0.16454 -1.18446,-0.32916 -1.80971,-0.42788 l 0.32866,-1.1188 h 0.85576 v -1.61282 h 0.32918 v -0.36173 h -0.32918 v -0.62529 h 0.65836 v -1.57975 -1.64537 -1.67845 c 0,-0.52653 -0.23055,-0.95402 -0.65836,-1.38183 -0.55944,-0.23035 -1.21769,-0.42819 -1.87585,-0.59273 -0.72399,-0.0987 -1.41475,-0.19721 -2.10582,-0.26303 -0.65815,-0.0329 -1.41523,-0.0656 -2.20503,-0.0656 -0.82271,0 -1.51364,-0.0659 -2.13889,-0.23048 z m 14.88953,12.63075 0.24805,-0.093 H 430.197 Z M 353.84972,528.6732 v 0.39532 h -0.42736 l -0.69144,0.72399 0.26355,0.92139 v 0.52658 l -2.00763,-0.16485 c -0.59234,0 -1.15175,0.0327 -1.64537,0.0656 -0.52653,0.0658 -1.05305,0.1321 -1.54668,0.19792 -0.55943,0.0987 -1.05307,0.23027 -1.44797,0.39481 -0.46071,0.16454 -0.92147,0.2959 -1.34927,0.46044 l 1.34927,0.36225 -1.80971,3.15898 h -0.42788 l -1.57975,1.3162 -0.62528,1.08624 h -0.42789 l 0.42789,0.59221 0.23047,0.88883 h 0.88832 c 0.42781,-0.36198 0.88853,-0.75732 1.44797,-1.11931 0.52653,-0.36199 0.95473,-0.85529 1.31672,-1.38182 0.36199,-0.55943 0.78969,-1.05325 1.2175,-1.48105 0.4278,-0.42781 0.95433,-0.85551 1.54667,-1.2175 l -0.88883,-1.84278 v -0.36225 l 0.88883,-0.22996 h 2.86288 l 0.1974,0.75654 c 0,0.59235 -0.0657,1.25061 -0.1974,1.87586 -0.16454,0.59235 -0.32878,1.21754 -0.55914,1.74408 -0.19745,0.55944 -0.42782,1.11902 -0.72399,1.67845 -0.29618,0.55944 -0.75709,1.08613 -1.38234,1.57974 l -1.97456,0.72399 v 0.36174 l -1.5136,0.78961 v 0.62529 0.65836 c 0,0.19744 0.0328,0.42783 0.1974,0.62528 0.13163,0.16454 0.26318,0.32896 0.39481,0.49351 h 0.49351 V 543.449 l 2.63291,-0.88832 0.22996,-0.72399 0.65836,-0.1974 c 0.59235,-0.62526 1.02003,-1.31621 1.3162,-2.04019 0.29617,-0.75688 0.62555,-1.48105 0.98754,-2.20503 0.36199,-0.75689 0.62508,-1.51359 0.78961,-2.33629 0.16454,-0.7898 0.5268,-1.51398 1.08624,-2.10633 h 0.46044 l 1.54667,2.40244 h 0.42788 l 1.57975,2.17196 c 0.29618,0.26327 0.62503,0.46042 0.98702,0.55914 0.36199,0.13163 0.78985,0.23028 1.25057,0.2961 0.3949,0.0987 0.85548,0.13178 1.3162,0.13178 0.3949,0 0.79007,0.13173 1.08624,0.32918 l 2.40192,-0.32918 1.34927,-1.87586 v -1.11879 l -0.88832,0.1974 -3.32382,-0.59221 v -0.36225 l -0.65785,-0.13126 v -0.23048 h -0.65835 v -0.36225 l -2.435,-1.08572 v -0.39481 l -1.31671,-0.72399 -2.66547,-3.15949 z m 23.1345,0.32918 h 0.19741 l -0.19741,0.65835 -0.16433,0.16433 h -0.23047 l -0.23048,0.19741 -0.22996,-0.19741 0.22996,-0.16433 0.23048,0.16433 z m 100.60058,1.51412 h 0.59221 l -0.3948,1.31619 -0.95447,0.39481 h -0.82269 l 0.19741,-1.15187 z m -64.07206,0.26303 2.04019,0.42788 2.13889,-0.42788 h 1.71152 l 1.25005,1.02009 v 0.39481 l -0.2961,0.1974 -1.77664,-0.42736 -4.50877,0.22996 h -2.9285 l -0.29662,-0.59221 v -0.39481 z m 0.85525,2.56677 3.32383,0.16484 0.2961,-0.16484 0.59273,0.16484 0.29611,-0.16484 h 1.77663 l 0.26355,0.59221 -5.66012,0.36225 h -3.52123 v -0.78962 z m 3.61993,1.94148 2.66547,0.1974 v 0.98754 l -0.92139,0.23048 h -8.32559 v -0.62529 z" />
      </g>
    </g>
  </g>
</svg>
